<svg xmlns="http://www.w3.org/2000/svg" version="1.1" xmlns:xlink="http://www.w3.org/1999/xlink" xmlns:svgjs="http://svgjs.com/svgjs" width="1000" height="1000"><rect width="1000" height="1000" rx="350" ry="350" fill="#ffffff"></rect><g transform="matrix(1,0,0,1,0,-12)"><svg xmlns="http://www.w3.org/2000/svg" version="1.1" xmlns:xlink="http://www.w3.org/1999/xlink" xmlns:svgjs="http://svgjs.com/svgjs" width="100%" height="1024"><svg version="1.1" id="Layer_1" xmlns="http://www.w3.org/2000/svg" xmlns:xlink="http://www.w3.org/1999/xlink" x="0px" y="0px" width="100%" viewBox="0 0 1024 1024" enable-background="new 0 0 1024 1024" xml:space="preserve">
<path fill="#000000" opacity="1.000000" stroke="none" d="
M712.999878,954.361755 
	C597.849915,955.565552 483.197144,955.373962 368.544647,954.965759 
	C325.388153,954.812134 282.232635,954.362061 239.077377,953.969727 
	C236.623352,953.947388 232.696106,955.119995 232.301178,951.761841 
	C231.882050,948.197876 236.065231,948.781311 238.389618,948.261108 
	C271.237823,940.909973 304.450745,935.901672 337.941620,932.514465 
	C362.623077,930.018372 387.287781,927.474670 412.096954,926.666016 
	C413.083649,926.633911 414.125061,926.665100 415.037659,925.364014 
	C415.016327,921.782104 413.342926,918.293823 412.188599,914.703003 
	C402.606750,884.896057 393.035583,855.085388 383.292816,825.330994 
	C382.275024,822.222778 382.790955,820.077271 384.629395,817.555054 
	C394.443848,804.090149 404.021149,790.452026 413.872467,777.014648 
	C416.308014,773.692444 416.663544,771.793152 412.745575,769.171021 
	C395.299957,757.495300 377.978821,745.625366 360.849243,733.491638 
	C356.595886,730.478699 351.806061,732.091553 346.527191,730.305786 
	C353.889465,710.857178 361.158813,691.654114 368.439056,672.422180 
	C366.574646,671.423828 365.664215,672.828430 364.652802,673.406982 
	C353.950531,679.529175 343.325134,685.786072 332.608276,691.882263 
	C330.028351,693.349792 328.238678,695.312439 326.828827,697.875427 
	C322.171509,706.341858 317.390106,714.739990 312.665314,723.169373 
	C311.681091,724.925293 310.696625,726.688538 308.810089,727.640320 
	C301.224152,731.467712 293.621857,735.262756 286.036835,739.092041 
	C284.011169,740.114807 282.524811,739.709351 281.555450,737.614014 
	C281.345825,737.160950 281.059937,736.740662 280.874725,736.278992 
	C279.146271,731.971130 274.486572,727.806824 275.594788,723.724670 
	C276.748901,719.473450 282.920624,718.298279 287.150604,716.873108 
	C298.131561,713.173096 300.928558,703.269470 305.849640,694.867737 
	C298.518463,689.219421 287.834015,688.932007 281.014435,693.997253 
	C277.403473,696.679321 273.781494,699.353577 270.283936,702.179199 
	C267.599884,704.347595 265.702209,704.532166 263.317596,701.431335 
	C254.151276,689.511780 254.051376,689.588196 266.332489,680.640930 
	C266.871246,680.248535 267.524078,679.961853 267.951385,679.474792 
	C277.511719,668.576843 289.013306,667.037292 301.960297,672.359741 
	C314.894531,677.676819 326.031982,674.368347 337.288849,666.721252 
	C349.524078,658.409485 362.743042,651.531494 375.643280,644.222839 
	C378.907349,642.373718 380.867462,639.947021 382.173157,636.484863 
	C390.225281,615.133423 398.535706,593.878784 406.476044,572.486450 
	C408.009918,568.354004 410.130035,566.866333 414.481201,566.884155 
	C447.145264,567.018311 479.810211,566.950806 512.474854,566.932007 
	C518.620911,566.928467 518.934265,566.622864 518.918274,560.447571 
	C518.912659,558.287109 518.873596,556.090149 518.493469,553.973877 
	C517.075745,546.080750 514.795288,544.221375 506.844055,544.220398 
	C468.179749,544.215698 429.515167,544.145386 390.851562,544.309875 
	C385.915070,544.330811 383.941620,543.127869 383.417999,537.790833 
	C380.801636,511.122620 377.726837,484.498993 374.759094,457.865723 
	C371.257111,426.438263 367.684235,395.018738 364.179321,363.591614 
	C363.477875,357.301971 363.079865,350.976105 362.272461,344.701630 
	C361.892700,341.750397 363.066681,340.861450 365.721161,340.584198 
	C377.310425,339.373657 388.883453,338.008850 400.471344,336.784637 
	C423.971710,334.301910 447.475433,331.850708 470.982269,329.430054 
	C492.998566,327.162933 515.023865,324.983063 537.038696,322.702393 
	C546.805481,321.690582 556.575134,320.663910 566.304626,319.355682 
	C569.807556,318.884644 572.277466,319.720215 574.725586,322.272156 
	C597.104553,345.599945 619.536987,368.877106 642.090820,392.035583 
	C644.972473,394.994415 646.340027,397.926605 646.315979,402.126740 
	C646.156372,429.957367 646.174438,457.789764 646.322388,485.620575 
	C646.343384,489.576843 645.080566,492.007629 641.717163,494.162445 
	C617.305725,509.802185 592.990479,525.592712 568.711060,541.437012 
	C565.640686,543.440674 562.563721,544.399597 558.893005,544.299927 
	C551.773193,544.106628 544.644409,544.243347 536.556458,544.243347 
	C538.063538,551.432068 538.245544,558.000061 538.503906,564.567383 
	C538.627014,567.696167 541.664246,566.950623 543.671265,566.955505 
	C561.669983,566.999634 579.668945,566.954590 597.667786,566.948242 
	C604.172729,566.945984 604.265320,566.975952 603.240173,573.523376 
	C602.802124,576.320862 604.159973,578.307678 605.477783,580.434814 
	C618.552612,601.539551 631.569397,622.680664 644.733093,643.729919 
	C646.468384,646.504761 646.902344,649.039551 646.097168,652.180786 
	C643.947754,660.566467 642.177124,669.049927 639.987183,677.424194 
	C639.267944,680.174438 639.756531,682.154236 641.531616,684.259460 
	C647.868530,691.775452 654.013611,699.453674 660.376465,706.947144 
	C662.615723,709.584290 663.214966,712.122742 662.506958,715.612000 
	C658.204529,736.814270 654.240601,758.085205 649.960815,779.292236 
	C649.359680,782.271057 649.906128,784.283447 651.881165,786.480225 
	C660.793091,796.393066 669.544312,806.450073 678.398193,816.415344 
	C680.002625,818.221252 681.146179,820.062134 681.119812,822.616577 
	C681.035706,830.781799 681.016663,838.949219 681.108948,847.114197 
	C681.149475,850.696472 679.659424,852.074646 676.041870,852.213379 
	C662.114929,852.747375 661.746582,852.840576 661.681946,838.950623 
	C661.641113,830.187866 659.687988,822.920959 652.811890,816.928284 
	C648.226990,812.932556 644.550964,807.893982 640.353577,803.193848 
	C636.756042,805.301575 635.743042,808.910034 633.460815,811.427246 
	C624.909180,820.859497 621.810608,831.767151 623.163574,844.455139 
	C623.983154,852.141235 623.319580,852.252075 615.722717,852.184570 
	C602.147644,852.063904 604.650574,853.722961 603.645874,840.135437 
	C602.608704,826.108337 605.428528,813.892395 615.109253,803.428650 
	C617.232727,801.133484 618.535583,798.101318 620.471497,795.606445 
	C626.918884,787.297363 630.829041,778.180420 632.403687,767.583252 
	C634.725647,751.957153 638.287842,736.513916 641.390747,721.006653 
	C642.014648,717.888733 641.743835,715.232788 639.578674,712.635437 
	C628.056030,698.813110 616.656250,684.888306 605.199219,671.011108 
	C604.903564,670.653015 604.439392,670.434143 603.449036,670.520508 
	C608.080872,679.050171 612.704102,687.584473 617.347351,696.107971 
	C620.774414,702.398926 624.025818,708.798401 627.745667,714.912170 
	C629.922913,718.490723 630.233826,721.832642 629.203491,725.801514 
	C626.736450,735.304199 624.501892,744.871216 622.395081,754.460999 
	C621.671753,757.753723 620.232727,758.744019 617.185791,757.342468 
	C614.360291,756.042725 611.416199,755.980774 608.375366,756.315125 
	C587.198547,758.643250 566.027100,761.030151 544.827271,763.129211 
	C540.631714,763.544678 538.998413,765.011597 539.013855,769.265747 
	C539.100952,793.263611 539.016357,817.262146 538.956177,841.260376 
	C538.949280,844.001221 539.709900,846.498047 540.790894,848.966064 
	C551.216797,872.769592 561.667664,896.562378 571.981201,920.414612 
	C573.363342,923.611023 575.243469,924.759583 578.750732,924.931702 
	C639.469238,927.913147 700.032349,932.471558 759.887695,943.764465 
	C767.086914,945.122864 774.274475,946.574036 781.404480,948.250061 
	C783.580017,948.761475 787.404968,948.180054 787.119141,951.668823 
	C786.828064,955.221619 783.204773,953.945251 780.985962,953.966248 
	C758.491394,954.178711 735.995483,954.250244 712.999878,954.361755 
M394.295502,457.299683 
	C396.609192,477.957062 399.003571,498.606049 401.165649,519.279297 
	C401.576447,523.206970 402.973267,524.739136 407.052429,524.728943 
	C453.532104,524.612915 500.012115,524.614929 546.491943,524.675049 
	C550.191406,524.679810 551.830933,523.641724 551.957581,519.599548 
	C552.718628,495.309814 553.856140,471.031769 554.593933,446.741455 
	C555.246216,425.266052 555.484436,403.778351 556.016846,382.298828 
	C556.317993,370.150696 556.712952,358.001495 557.326843,345.865997 
	C557.608093,340.307007 557.661926,340.142792 552.142456,340.728546 
	C525.675659,343.537231 499.207581,346.333832 472.735413,349.091095 
	C445.597412,351.917694 418.447327,354.630035 391.317413,357.531464 
	C383.433380,358.374634 383.488495,358.589905 384.374298,366.608948 
	C387.680054,396.535492 390.963165,426.464539 394.295502,457.299683 
M432.549805,587.018860 
	C420.089661,587.201721 422.705322,585.285400 418.227478,596.987000 
	C404.244812,633.526428 390.479004,670.148926 376.661621,706.751465 
	C376.162567,708.073486 375.089081,709.398926 376.042206,710.992310 
	C377.733856,712.014526 379.610229,711.657898 381.404388,711.658142 
	C432.381927,711.664673 483.359497,711.646179 534.337036,711.627869 
	C541.971863,711.625122 542.025269,711.632202 544.191284,704.302124 
	C555.179260,667.117493 566.141418,629.925293 577.091553,592.729553 
	C577.585938,591.050171 578.583374,589.347351 577.141602,587.017761 
	C529.431519,587.017761 481.483856,587.017761 432.549805,587.018860 
M432.562469,913.975952 
	C433.049561,915.393494 433.731354,916.776611 433.988586,918.234741 
	C434.894012,923.367004 437.570709,925.340820 442.990356,924.929688 
	C452.443573,924.212524 461.949860,924.002502 471.436005,923.948669 
	C496.089813,923.808777 520.744812,923.887756 545.399170,923.812683 
	C547.275818,923.806946 549.396606,924.530823 551.019226,922.850952 
	C551.201172,920.470886 549.995300,918.600647 549.142334,916.647949 
	C539.677856,894.979736 530.197144,873.318481 520.687988,851.669800 
	C519.806458,849.662964 519.132324,847.675964 519.130310,845.438538 
	C519.108643,821.459045 519.051270,797.479614 518.994385,773.500122 
	C518.976440,765.938293 518.570068,765.728638 510.945099,766.611206 
	C488.806610,769.173828 466.663452,771.705505 444.496613,774.003479 
	C441.146790,774.350769 439.052765,775.563904 437.160339,778.218445 
	C427.105591,792.322632 416.973907,806.373352 406.711609,820.326904 
	C404.494843,823.341125 404.235168,826.054199 405.382477,829.572083 
	C414.465149,857.421753 423.374420,885.328003 432.562469,913.975952 
z"></path>
<path fill="#000000" opacity="1.000000" stroke="none" d="
M716.770874,97.149666 
	C721.688538,99.908607 726.283997,102.489815 730.744446,104.995209 
	C730.093140,107.756493 728.081421,108.150192 726.556030,108.995949 
	C717.669800,113.922859 708.790405,118.866913 699.800232,123.599159 
	C696.406799,125.385368 693.980103,127.781754 692.193726,131.168106 
	C687.452881,140.154770 682.520630,149.040802 677.627869,157.946732 
	C676.850403,159.361862 676.432739,161.118484 674.582397,161.737350 
	C672.474670,161.206146 672.086121,159.203186 671.241028,157.673401 
	C666.649902,149.362259 661.937622,141.108383 657.670288,132.631790 
	C655.293091,127.909805 651.847229,124.804787 647.239258,122.429420 
	C638.653442,118.003456 630.234253,113.253700 621.761108,108.610573 
	C620.491516,107.914864 618.913025,107.513077 618.494690,105.802345 
	C618.893005,104.038521 620.494873,103.657486 621.750244,102.962799 
	C631.078430,97.800690 640.383484,92.593094 649.801697,87.599480 
	C652.750732,86.035858 654.792847,83.930000 656.346497,81.031769 
	C661.225525,71.929741 666.215637,62.886662 671.234985,53.860920 
	C672.082703,52.336521 672.471008,50.330502 675.279114,49.569691 
	C678.741943,55.764156 682.880066,61.845276 685.694336,68.487320 
	C690.897156,80.766701 699.145874,89.545769 711.625671,94.343628 
	C713.319763,94.994934 714.845154,96.085007 716.770874,97.149666 
z"></path>
<path fill="#000000" opacity="1.000000" stroke="none" d="
M873.605835,437.428467 
	C870.562561,435.731079 867.849792,434.198700 864.224670,432.151001 
	C871.337769,426.619110 880.079224,424.848572 885.340271,419.071289 
	C890.561951,413.337128 893.561829,405.579712 897.960632,397.975647 
	C903.786316,404.498566 905.177490,413.463501 910.885132,418.709534 
	C916.705017,424.058807 924.639465,427.107544 932.458313,431.632416 
	C925.463867,436.954468 916.784729,438.808960 911.442383,444.454285 
	C906.038330,450.164795 902.977417,458.092712 898.290283,466.070190 
	C890.883972,455.103058 888.019226,441.296326 873.605835,437.428467 
z"></path>
<path fill="#000000" opacity="1.000000" stroke="none" d="
M414.319305,163.245117 
	C423.497498,157.044083 432.338379,156.978790 439.990997,162.818802 
	C446.824463,168.033676 449.690033,177.498138 446.697296,185.602142 
	C443.794952,193.461472 438.094177,198.263412 429.776123,199.160492 
	C421.060669,200.100418 414.151794,196.632507 409.793671,188.877502 
	C405.549377,181.325089 406.280182,173.906174 411.079498,166.832382 
	C411.909302,165.609283 413.046539,164.594772 414.319305,163.245117 
z"></path>
<path fill="#000000" opacity="1.000000" stroke="none" d="
M730.448120,308.497070 
	C732.025085,309.414917 733.585388,309.834015 734.096558,312.748169 
	C720.796936,317.316437 711.093079,326.410400 706.366272,341.554443 
	C700.761597,334.836975 699.242981,327.476410 694.479553,322.664185 
	C689.668213,317.803558 682.282104,316.237885 675.431335,310.691925 
	C690.494690,305.860992 699.756104,296.126740 705.324341,282.022736 
	C711.490234,293.444885 717.218201,304.361725 730.448120,308.497070 
z"></path>
<path fill="#000000" opacity="1.000000" stroke="none" d="
M123.825958,593.804749 
	C127.984512,592.106262 129.934082,588.904724 131.737366,585.432251 
	C132.998230,583.004150 133.674805,580.083069 137.175278,578.065552 
	C141.047119,587.620361 147.228409,595.029785 157.763565,598.942139 
	C148.010635,603.823364 140.662155,610.242126 136.599594,620.623047 
	C132.066208,610.520935 125.174141,603.622803 114.934822,599.930359 
	C117.692451,596.383667 120.987640,595.753052 123.825958,593.804749 
z"></path>
<path fill="#000000" opacity="1.000000" stroke="none" d="
M700.213989,566.409790 
	C694.715210,569.730896 689.637329,569.306458 685.150818,565.472656 
	C681.418640,562.283447 679.526001,558.031311 680.809509,553.000610 
	C682.155029,547.726990 685.555298,544.352295 690.928223,543.143005 
	C696.209351,541.954468 701.925964,544.817749 704.623230,549.934326 
	C707.698792,555.768494 706.454590,560.697571 700.213989,566.409790 
z"></path>
<path fill="#000000" opacity="1.000000" stroke="none" d="
M134.595917,409.556519 
	C129.586288,404.358002 128.543762,399.781677 131.020081,394.969727 
	C133.254684,390.627441 137.903946,388.243683 143.080811,388.786041 
	C147.713150,389.271301 151.627396,392.732574 152.771927,397.570435 
	C153.932800,402.477478 152.094406,406.460907 148.313721,409.448730 
	C144.032913,412.831879 139.450012,412.736542 134.595917,409.556519 
z"></path>
<path fill="#000000" opacity="1.000000" stroke="none" d="
M235.217834,278.225800 
	C237.296722,276.325409 237.470016,273.366455 240.598694,271.926819 
	C242.904861,276.169067 246.147049,279.703278 251.648849,282.369293 
	C246.243851,285.054230 242.762177,288.173920 240.496811,293.695007 
	C237.104965,288.956696 234.642517,284.614258 229.732849,283.315369 
	C230.866379,280.085632 233.395645,279.873383 235.217834,278.225800 
z"></path>
<path fill="#000000" opacity="1.000000" stroke="none" d="
M276.287720,528.166382 
	C271.097687,530.570007 267.682739,529.676147 266.024658,525.820984 
	C264.572906,522.445557 266.227966,518.661072 269.779694,517.311462 
	C272.610229,516.235962 275.099945,516.951416 276.891510,519.263062 
	C279.106506,522.121033 278.813721,525.097473 276.287720,528.166382 
z"></path>
<path fill="#000000" opacity="1.000000" stroke="none" d="
M794.109680,525.588623 
	C796.964233,527.842651 797.882935,530.237061 795.674988,533.019958 
	C794.097961,535.007690 791.997314,535.844177 789.561890,534.628418 
	C787.190063,533.444397 786.241882,531.274658 786.924377,528.844543 
	C787.883911,525.428101 790.280884,524.151550 794.109680,525.588623 
z"></path>
<path fill="#000000" opacity="1.000000" stroke="none" d="
M726.119385,432.157990 
	C729.217468,430.720154 731.288147,431.647369 732.479065,434.303894 
	C733.347839,436.241638 732.401855,437.858856 730.816711,439.017578 
	C728.921753,440.402740 727.008728,440.106323 725.497803,438.438354 
	C723.651367,436.400146 723.751282,434.286621 726.119385,432.157990 
z"></path>
<path fill="#000000" opacity="1.000000" stroke="none" d="
M443.478912,443.718872 
	C449.011993,456.529297 449.025055,468.951691 443.011780,481.188080 
	C440.547577,486.202454 436.795105,490.031708 430.807526,490.200928 
	C424.717010,490.373016 420.893158,486.484283 418.415863,481.542053 
	C411.973602,468.689484 411.743256,455.578827 418.202240,442.667725 
	C420.548401,437.977997 423.969482,433.913788 429.924622,433.775696 
	C436.716644,433.618134 440.377411,438.042114 443.478912,443.718872 
z"></path>
<path fill="#000000" opacity="1.000000" stroke="none" d="
M497.106445,463.479431 
	C494.869141,455.136871 495.769287,447.548401 500.102234,440.542206 
	C505.692444,431.503052 515.789490,431.289429 521.606262,440.180817 
	C527.474976,449.151672 527.538330,458.682312 523.052002,468.207092 
	C520.674438,473.254791 516.911072,477.145050 510.881042,477.143951 
	C504.798645,477.142883 501.373962,473.017395 498.838013,468.052795 
	C498.162415,466.730164 497.760223,465.267883 497.106445,463.479431 
z"></path>
</svg></svg></g></svg>